<?xml version="1.0" encoding="utf-8"?>
<!-- Generator: Adobe Illustrator 23.0.4, SVG Export Plug-In . SVG Version: 6.00 Build 0)  -->
<svg version="1.1" id="Layer_1" xmlns="http://www.w3.org/2000/svg" xmlns:xlink="http://www.w3.org/1999/xlink" x="0px" y="0px"
	 width="100px" height="100px" viewBox="0 0 100 100" style="enable-background:new 0 0 100 100;" xml:space="preserve">
<style type="text/css">
	.st0{fill:#054062;}
	.st1{fill:#FFFFFF;}
</style>
<g>
	<circle id="Oval-1_2_" class="st0" cx="50" cy="50" r="49.4"/>
	<path class="st1" d="M27.9,50c0,3.8,0.5,7.3,1.5,10.5s2.6,6,4.7,8.4s4.9,4.2,8.2,5.6s7.3,2.1,11.9,2.1c3,0,5.7-0.3,8.2-0.8
		c2.5-0.5,4.6-1.1,6.2-1.8l-2-11.7c-1.7,0.7-3.5,1.2-5.4,1.5c-2,0.3-3.8,0.5-5.6,0.5c-4.8,0-8.2-1.2-10.2-3.7
		c-1.9-2.5-2.9-6-2.9-10.5c0-4.3,1-7.7,3.1-10.3s5.2-3.9,9.4-3.9c2,0,3.8,0.2,5.4,0.6c1.6,0.4,3.1,0.8,4.4,1.4l3-11.4
		c-2.1-0.9-4.3-1.6-6.5-2.1s-4.7-0.7-7.4-0.7c-4.1,0-7.7,0.7-10.9,2.1s-5.9,3.3-8.1,5.7c-2.2,2.4-3.9,5.2-5.1,8.4S27.9,46.3,27.9,50
		"/>
</g>
</svg>
